<mxfile host="app.diagrams.net" modified="2023-11-24T13:51:59.646Z" agent="Mozilla/5.0 (Windows NT 10.0; Win64; x64) AppleWebKit/537.36 (KHTML, like Gecko) Chrome/119.0.0.0 Safari/537.36" etag="4kwKQJNXlh__Knf3oHR5" version="22.1.3" type="google">
  <diagram name="Страница — 1" id="uHvxQlaoBPOyLKQMtsB_">
    <mxGraphModel grid="1" page="1" gridSize="10" guides="1" tooltips="1" connect="1" arrows="1" fold="1" pageScale="1" pageWidth="827" pageHeight="1169" math="0" shadow="0">
      <root>
        <mxCell id="0" />
        <mxCell id="1" parent="0" />
        <mxCell id="aH1IgYPJy_JFZCoVtTBJ-1" value="" style="shape=ellipse;html=1;fillColor=strokeColor;fontSize=18;fontColor=#ffffff;" vertex="1" parent="1">
          <mxGeometry x="120" y="80" width="40" height="40" as="geometry" />
        </mxCell>
        <mxCell id="aH1IgYPJy_JFZCoVtTBJ-3" value="i = 0" style="shape=rect;rounded=1;html=1;whiteSpace=wrap;align=center;" vertex="1" parent="1">
          <mxGeometry x="280" y="160" width="130" height="70" as="geometry" />
        </mxCell>
        <mxCell id="aH1IgYPJy_JFZCoVtTBJ-5" value="&lt;p style=&quot;margin:0px;margin-top:4px;text-align:center;&quot;&gt;sum calculation&lt;/p&gt;&lt;hr&gt;&lt;p&gt;&lt;/p&gt;&lt;p style=&quot;margin:0px;margin-left:8px;text-align:left;&quot;&gt;sum += input[j]&lt;/p&gt;" style="shape=mxgraph.sysml.simpleState;html=1;overflow=fill;whiteSpace=wrap;align=center;" vertex="1" parent="1">
          <mxGeometry x="349" y="280" width="130" height="70" as="geometry" />
        </mxCell>
        <mxCell id="aH1IgYPJy_JFZCoVtTBJ-6" value="sum = 0" style="shape=rect;rounded=1;html=1;whiteSpace=wrap;align=center;" vertex="1" parent="1">
          <mxGeometry x="75" y="280" width="130" height="70" as="geometry" />
        </mxCell>
        <mxCell id="aH1IgYPJy_JFZCoVtTBJ-7" value="" style="edgeStyle=none;html=1;endArrow=open;endSize=12;strokeWidth=3;verticalAlign=bottom;rounded=0;exitX=0.5;exitY=1;exitDx=0;exitDy=0;entryX=0.5;entryY=0;entryDx=0;entryDy=0;" edge="1" parent="1" source="aH1IgYPJy_JFZCoVtTBJ-1">
          <mxGeometry width="160" relative="1" as="geometry">
            <mxPoint x="330" y="210" as="sourcePoint" />
            <mxPoint x="140" y="160" as="targetPoint" />
          </mxGeometry>
        </mxCell>
        <mxCell id="aH1IgYPJy_JFZCoVtTBJ-8" value="" style="edgeStyle=none;html=1;endArrow=open;endSize=12;strokeWidth=3;verticalAlign=bottom;rounded=0;exitX=1;exitY=0.5;exitDx=0;exitDy=0;entryX=0;entryY=0.5;entryDx=0;entryDy=0;" edge="1" parent="1" target="aH1IgYPJy_JFZCoVtTBJ-3">
          <mxGeometry width="160" relative="1" as="geometry">
            <mxPoint x="205" y="195" as="sourcePoint" />
            <mxPoint x="150" y="170" as="targetPoint" />
          </mxGeometry>
        </mxCell>
        <mxCell id="aH1IgYPJy_JFZCoVtTBJ-9" value="" style="edgeStyle=none;html=1;endArrow=open;endSize=12;strokeWidth=3;verticalAlign=bottom;rounded=0;exitX=1;exitY=0.5;exitDx=0;exitDy=0;entryX=0;entryY=0.5;entryDx=0;entryDy=0;" edge="1" parent="1" source="aH1IgYPJy_JFZCoVtTBJ-3">
          <mxGeometry width="160" relative="1" as="geometry">
            <mxPoint x="160" y="140" as="sourcePoint" />
            <mxPoint x="490" y="195" as="targetPoint" />
          </mxGeometry>
        </mxCell>
        <mxCell id="aH1IgYPJy_JFZCoVtTBJ-10" value="" style="edgeStyle=orthogonalEdgeStyle;html=1;endArrow=open;endSize=12;strokeWidth=3;verticalAlign=bottom;rounded=1;exitX=1;exitY=0.5;exitDx=0;exitDy=0;entryX=0.5;entryY=0;entryDx=0;entryDy=0;" edge="1" parent="1" target="aH1IgYPJy_JFZCoVtTBJ-6">
          <mxGeometry width="160" relative="1" as="geometry">
            <mxPoint x="620" y="195" as="sourcePoint" />
            <mxPoint x="170" y="190" as="targetPoint" />
            <Array as="points">
              <mxPoint x="630" y="195" />
              <mxPoint x="630" y="250" />
              <mxPoint x="140" y="250" />
            </Array>
          </mxGeometry>
        </mxCell>
        <mxCell id="aH1IgYPJy_JFZCoVtTBJ-11" value="&lt;font style=&quot;font-size: 12px;&quot;&gt;input[j] &amp;gt; 0&lt;/font&gt;" style="edgeStyle=none;html=1;endArrow=open;endSize=12;strokeWidth=3;verticalAlign=bottom;rounded=0;exitX=1;exitY=0.5;exitDx=0;exitDy=0;entryX=0;entryY=0.5;entryDx=0;entryDy=0;entryPerimeter=0;" edge="1" parent="1" source="aH1IgYPJy_JFZCoVtTBJ-6" target="aH1IgYPJy_JFZCoVtTBJ-5">
          <mxGeometry width="160" relative="1" as="geometry">
            <mxPoint x="330" y="210" as="sourcePoint" />
            <mxPoint x="490" y="210" as="targetPoint" />
          </mxGeometry>
        </mxCell>
        <mxCell id="aH1IgYPJy_JFZCoVtTBJ-12" value="increment j" style="shape=rect;rounded=1;html=1;whiteSpace=wrap;align=center;" vertex="1" parent="1">
          <mxGeometry x="75" y="400" width="130" height="70" as="geometry" />
        </mxCell>
        <mxCell id="aH1IgYPJy_JFZCoVtTBJ-13" value="&lt;font style=&quot;font-size: 12px;&quot;&gt;input &amp;lt;= 0&lt;/font&gt;" style="edgeStyle=none;html=1;endArrow=open;endSize=12;strokeWidth=3;verticalAlign=bottom;rounded=0;exitX=0.5;exitY=1;exitDx=0;exitDy=0;entryX=0.5;entryY=0;entryDx=0;entryDy=0;" edge="1" parent="1" source="aH1IgYPJy_JFZCoVtTBJ-6" target="aH1IgYPJy_JFZCoVtTBJ-12">
          <mxGeometry width="160" relative="1" as="geometry">
            <mxPoint x="330" y="210" as="sourcePoint" />
            <mxPoint x="490" y="210" as="targetPoint" />
          </mxGeometry>
        </mxCell>
        <mxCell id="aH1IgYPJy_JFZCoVtTBJ-15" value="" style="edgeStyle=orthogonalEdgeStyle;html=1;endArrow=open;endSize=12;strokeWidth=3;verticalAlign=bottom;rounded=1;exitX=0.5;exitY=1;exitDx=0;exitDy=0;exitPerimeter=0;entryX=1;entryY=0.5;entryDx=0;entryDy=0;" edge="1" parent="1" source="aH1IgYPJy_JFZCoVtTBJ-5" target="aH1IgYPJy_JFZCoVtTBJ-12">
          <mxGeometry width="160" relative="1" as="geometry">
            <mxPoint x="330" y="210" as="sourcePoint" />
            <mxPoint x="490" y="210" as="targetPoint" />
          </mxGeometry>
        </mxCell>
        <mxCell id="aH1IgYPJy_JFZCoVtTBJ-16" value="&lt;p style=&quot;margin:0px;margin-top:4px;text-align:center;&quot;&gt;out calculation&lt;/p&gt;&lt;hr&gt;&lt;p&gt;&lt;/p&gt;&lt;p style=&quot;margin:0px;margin-left:8px;text-align:left;&quot;&gt;out[i] = weight * sum&lt;/p&gt;" style="shape=mxgraph.sysml.simpleState;html=1;overflow=fill;whiteSpace=wrap;align=center;" vertex="1" parent="1">
          <mxGeometry x="75" y="570" width="130" height="70" as="geometry" />
        </mxCell>
        <mxCell id="aH1IgYPJy_JFZCoVtTBJ-17" value="&lt;p style=&quot;margin:0px;margin-top:4px;text-align:center;&quot;&gt;weight calculation&lt;/p&gt;&lt;hr&gt;&lt;p&gt;&lt;/p&gt;&lt;p style=&quot;margin:0px;margin-left:8px;text-align:left;&quot;&gt;sum += input[j]&lt;/p&gt;" style="shape=mxgraph.sysml.simpleState;html=1;overflow=fill;whiteSpace=wrap;align=center;" vertex="1" parent="1">
          <mxGeometry x="75" y="160" width="130" height="70" as="geometry" />
        </mxCell>
        <mxCell id="aH1IgYPJy_JFZCoVtTBJ-18" value="" style="edgeStyle=orthogonalEdgeStyle;html=1;endArrow=open;endSize=12;strokeWidth=3;verticalAlign=bottom;rounded=1;exitX=0;exitY=0.5;exitDx=0;exitDy=0;entryX=0.5;entryY=0;entryDx=0;entryDy=0;entryPerimeter=0;" edge="1" parent="1" source="aH1IgYPJy_JFZCoVtTBJ-12" target="aH1IgYPJy_JFZCoVtTBJ-16">
          <mxGeometry width="160" relative="1" as="geometry">
            <mxPoint x="215" y="205" as="sourcePoint" />
            <mxPoint x="290" y="205" as="targetPoint" />
          </mxGeometry>
        </mxCell>
        <mxCell id="aH1IgYPJy_JFZCoVtTBJ-20" value="&lt;font style=&quot;font-size: 12px;&quot;&gt;j =&amp;nbsp;i&lt;/font&gt;" style="edgeLabel;html=1;align=center;verticalAlign=middle;resizable=0;points=[];" connectable="0" vertex="1" parent="aH1IgYPJy_JFZCoVtTBJ-18">
          <mxGeometry x="-0.1283" y="-3" relative="1" as="geometry">
            <mxPoint y="-33" as="offset" />
          </mxGeometry>
        </mxCell>
        <mxCell id="aH1IgYPJy_JFZCoVtTBJ-21" value="&lt;p style=&quot;margin:0px;margin-top:4px;text-align:center;&quot;&gt;start index calculation&lt;/p&gt;&lt;hr&gt;&lt;p&gt;&lt;/p&gt;&lt;p style=&quot;margin:0px;margin-left:8px;text-align:left;&quot;&gt;j = i - depth&lt;/p&gt;" style="shape=mxgraph.sysml.simpleState;html=1;overflow=fill;whiteSpace=wrap;align=center;" vertex="1" parent="1">
          <mxGeometry x="490" y="160" width="130" height="70" as="geometry" />
        </mxCell>
        <mxCell id="aH1IgYPJy_JFZCoVtTBJ-22" value="" style="edgeStyle=orthogonalEdgeStyle;html=1;endArrow=open;endSize=12;strokeWidth=3;verticalAlign=bottom;rounded=1;exitX=0.5;exitY=1;exitDx=0;exitDy=0;entryX=1;entryY=0.5;entryDx=0;entryDy=0;entryPerimeter=0;" edge="1" parent="1" source="aH1IgYPJy_JFZCoVtTBJ-12" target="aH1IgYPJy_JFZCoVtTBJ-5">
          <mxGeometry width="160" relative="1" as="geometry">
            <mxPoint x="330" y="470" as="sourcePoint" />
            <mxPoint x="490" y="470" as="targetPoint" />
            <Array as="points">
              <mxPoint x="140" y="500" />
              <mxPoint x="530" y="500" />
              <mxPoint x="530" y="315" />
            </Array>
          </mxGeometry>
        </mxCell>
        <mxCell id="aH1IgYPJy_JFZCoVtTBJ-23" value="increment i" style="shape=rect;rounded=1;html=1;whiteSpace=wrap;align=center;" vertex="1" parent="1">
          <mxGeometry x="280" y="570" width="130" height="70" as="geometry" />
        </mxCell>
        <mxCell id="aH1IgYPJy_JFZCoVtTBJ-24" value="" style="edgeStyle=none;html=1;endArrow=open;endSize=12;strokeWidth=3;verticalAlign=bottom;rounded=0;exitX=1;exitY=0.5;exitDx=0;exitDy=0;exitPerimeter=0;entryX=0;entryY=0.5;entryDx=0;entryDy=0;" edge="1" parent="1" source="aH1IgYPJy_JFZCoVtTBJ-16" target="aH1IgYPJy_JFZCoVtTBJ-23">
          <mxGeometry width="160" relative="1" as="geometry">
            <mxPoint x="330" y="470" as="sourcePoint" />
            <mxPoint x="490" y="470" as="targetPoint" />
          </mxGeometry>
        </mxCell>
        <mxCell id="aH1IgYPJy_JFZCoVtTBJ-25" value="" style="shape=mxgraph.sysml.actFinal;html=1;verticalLabelPosition=bottom;labelBackgroundColor=#ffffff;verticalAlign=top;" vertex="1" parent="1">
          <mxGeometry x="325" y="700" width="40" height="40" as="geometry" />
        </mxCell>
        <mxCell id="aH1IgYPJy_JFZCoVtTBJ-26" value="i = 10" style="edgeStyle=none;html=1;endArrow=open;endSize=12;strokeWidth=3;verticalAlign=bottom;rounded=0;exitX=0.5;exitY=1;exitDx=0;exitDy=0;entryX=0.5;entryY=0;entryDx=0;entryDy=0;entryPerimeter=0;" edge="1" parent="1" source="aH1IgYPJy_JFZCoVtTBJ-23" target="aH1IgYPJy_JFZCoVtTBJ-25">
          <mxGeometry width="160" relative="1" as="geometry">
            <mxPoint x="330" y="470" as="sourcePoint" />
            <mxPoint x="490" y="470" as="targetPoint" />
          </mxGeometry>
        </mxCell>
        <mxCell id="aH1IgYPJy_JFZCoVtTBJ-27" value="" style="edgeStyle=orthogonalEdgeStyle;html=1;endArrow=open;endSize=12;strokeWidth=3;verticalAlign=bottom;rounded=1;exitX=1;exitY=0.5;exitDx=0;exitDy=0;entryX=0.5;entryY=0;entryDx=0;entryDy=0;entryPerimeter=0;" edge="1" parent="1" source="aH1IgYPJy_JFZCoVtTBJ-23" target="aH1IgYPJy_JFZCoVtTBJ-21">
          <mxGeometry width="160" relative="1" as="geometry">
            <mxPoint x="330" y="470" as="sourcePoint" />
            <mxPoint x="490" y="470" as="targetPoint" />
            <Array as="points">
              <mxPoint x="670" y="605" />
              <mxPoint x="670" y="100" />
              <mxPoint x="555" y="100" />
            </Array>
          </mxGeometry>
        </mxCell>
      </root>
    </mxGraphModel>
  </diagram>
</mxfile>
